<svg width="80" height="80" viewBox="0 0 80 80" fill="none" xmlns="http://www.w3.org/2000/svg">
<g filter="url(#filter0_d_155_311)">
<path d="M18.9847 53.0078L20.0083 49.6573C20.2535 48.8547 19.9716 47.9845 19.3025 47.4781L15.8768 44.8855C14.8687 44.1226 14.8126 42.6274 15.7606 41.791L17.9464 39.8627C18.5913 39.2937 18.8003 38.3762 18.4654 37.5841L16.3353 32.5457C15.7742 31.2186 16.7582 29.7515 18.199 29.767L23.6615 29.8259C24.3118 29.8329 24.9249 29.5233 25.3052 28.9958L29.3614 23.3706C30.1397 22.2912 31.7354 22.2587 32.5569 23.3055L34.6842 26.0159C35.4166 26.949 36.7955 27.0433 37.6481 26.2185L41.4388 22.5513C42.2635 21.7535 43.5888 21.8116 44.3405 22.6784L47.86 26.7373C48.3152 27.2622 49.01 27.5133 49.6955 27.4006L59.2216 25.8344C60.8029 25.5744 62.0325 27.1867 61.3634 28.6429L59.076 33.6214C58.6602 34.5263 58.9736 35.5992 59.811 36.1381L63.3543 38.4187C64.5438 39.1842 64.5844 40.9089 63.4322 41.7295L58.0238 45.5816C57.3453 46.0649 57.0374 46.9182 57.2509 47.7234L58.1127 50.9728C58.552 52.629 56.8412 54.0347 55.3016 53.2825L51.6635 51.5051C50.6297 51 49.3839 51.4693 48.9402 52.5309L47.6515 55.6146C47.0974 56.9404 45.3678 57.2667 44.3687 56.234L41.4721 53.2398C40.6033 52.3418 39.1329 52.4514 38.4069 53.4684L35.561 57.4548C34.7936 58.5297 33.2134 58.5788 32.3807 57.5536L29.3025 53.7634C28.7404 53.0712 27.7878 52.8348 26.9672 53.1838L21.6802 55.4326C20.1164 56.0977 18.4882 54.633 18.9847 53.0078Z" fill="#E43C3C" stroke="white" stroke-width="2"/>
<path d="M46.5441 32.938C48.0764 32.7934 49.4283 33.1653 50.4115 34.2131L50.4105 34.2132C51.3691 35.2237 51.8499 36.7954 52.0295 38.6981C52.2091 40.6004 52.0303 42.2337 51.2781 43.4057C50.5083 44.619 49.251 45.2381 47.7186 45.3827C46.1856 45.5274 44.8331 45.155 43.842 44.1134L43.8376 44.1089C43.4874 43.7357 43.202 43.2851 42.9717 42.7703C42.8396 43.3192 42.6404 43.8145 42.3626 44.2472C41.5928 45.4605 40.3356 46.0795 38.8032 46.2242C37.2701 46.3688 35.9176 45.9964 34.9265 44.9549L34.9222 44.9504C33.9738 43.9397 33.4974 42.3675 33.3178 40.4641C33.1381 38.5607 33.312 36.9272 34.0545 35.7569L34.0579 35.7516C34.8366 34.543 36.0956 33.9242 37.6286 33.7795C39.161 33.6349 40.5128 34.0068 41.496 35.0545L41.4951 35.0546C41.8489 35.4276 42.1372 35.8771 42.3697 36.3914C42.4996 35.843 42.6959 35.3474 42.9699 34.9154L42.9734 34.9102C43.7521 33.7016 45.011 33.0827 46.5441 32.938ZM30.6552 34.5779C31.138 34.5323 31.5894 34.6805 31.9526 34.99L31.9535 34.989C31.9585 34.9931 31.9626 34.9982 31.9675 35.0024C31.9701 35.0046 31.9734 35.0061 31.9759 35.0084L31.9751 35.0095C32.3288 35.3114 32.5552 35.7206 32.6005 36.2011L33.4108 44.786C33.4561 45.2665 33.3103 45.7109 33.0193 46.0736L33.0204 46.0745C33.0182 46.0772 33.0154 46.0793 33.0132 46.082C33.0092 46.087 33.0061 46.0928 33.002 46.0978L33.0009 46.0969C32.702 46.469 32.2863 46.699 31.8035 46.7445L31.3855 46.784C30.8948 46.8302 30.4413 46.6776 30.0745 46.3741C29.7076 46.0705 29.4729 45.6528 29.4265 45.162L28.9322 39.9246L28.4604 40.3615C28.2878 40.5256 28.0579 40.6684 27.7708 40.7247C27.4842 40.781 27.2176 40.7371 26.9969 40.6516L26.9846 40.6469L26.9723 40.6412C26.7603 40.5525 26.5472 40.407 26.3828 40.1838C26.2183 39.9603 26.1422 39.7127 26.1205 39.4837L26.068 38.9266C25.9893 38.0927 26.278 37.3485 26.8852 36.7768L26.8907 36.7724L28.2742 35.4883L28.2797 35.4838C28.8302 34.9799 29.4935 34.6876 30.2372 34.6173L30.6552 34.5779ZM37.96 37.2902C37.6614 37.3184 37.5212 37.4242 37.4079 37.6768C37.2589 38.0094 37.1622 38.7529 37.2884 40.0894C37.4145 41.4258 37.6486 42.1381 37.8572 42.4369C38.0157 42.6639 38.1732 42.7416 38.4718 42.7134C38.7704 42.6852 38.9106 42.5794 39.0239 42.3268C39.1728 41.9942 39.2696 41.2507 39.1434 39.9143C39.0173 38.5779 38.7832 37.8656 38.5746 37.5667C38.4161 37.3398 38.2585 37.2621 37.96 37.2902ZM46.8754 36.4488C46.5769 36.477 46.4366 36.5828 46.3234 36.8354C46.1744 37.168 46.0777 37.9114 46.2038 39.2479C46.33 40.5844 46.5641 41.2966 46.7726 41.5955C46.9312 41.8224 47.0887 41.9001 47.3873 41.872C47.6858 41.8438 47.8261 41.738 47.9393 41.4854C48.0883 41.1527 48.185 40.4092 48.0589 39.0728C47.9328 37.7364 47.6986 37.0241 47.4901 36.7253C47.3316 36.4983 47.174 36.4206 46.8754 36.4488Z" fill="black" stroke="white" stroke-width="2"/>
</g>
<defs>
<filter id="filter0_d_155_311" x="4.35433" y="16.1239" width="70.647" height="57.7629" filterUnits="userSpaceOnUse" color-interpolation-filters="sRGB">
<feFlood flood-opacity="0" result="BackgroundImageFix"/>
<feColorMatrix in="SourceAlpha" type="matrix" values="0 0 0 0 0 0 0 0 0 0 0 0 0 0 0 0 0 0 127 0" result="hardAlpha"/>
<feOffset dy="4.8647"/>
<feGaussianBlur stdDeviation="4.8647"/>
<feComposite in2="hardAlpha" operator="out"/>
<feColorMatrix type="matrix" values="0 0 0 0 0 0 0 0 0 0 0 0 0 0 0 0 0 0 0.12 0"/>
<feBlend mode="normal" in2="BackgroundImageFix" result="effect1_dropShadow_155_311"/>
<feBlend mode="normal" in="SourceGraphic" in2="effect1_dropShadow_155_311" result="shape"/>
</filter>
</defs>
</svg>
