<svg width="800" height="800" viewBox="0 0 800 800" fill="none" xmlns="http://www.w3.org/2000/svg">
<g filter="url(#filter0_d_155_311)">
<path d="M189.847 530.078L200.083 496.573C202.535 488.547 199.716 479.845 193.025 474.781L158.768 448.855C148.687 441.226 148.126 426.274 157.606 417.91L179.464 398.627C185.913 392.937 188.003 383.762 184.654 375.841L163.353 325.457C157.742 312.186 167.582 297.515 181.99 297.67L236.615 298.259C243.118 298.329 249.249 295.233 253.052 289.958L293.614 233.706C301.397 222.912 317.354 222.587 325.569 233.055L346.842 260.159C354.166 269.49 367.955 270.433 376.481 262.185L414.388 225.513C422.635 217.535 435.888 218.116 443.405 226.784L478.6 267.373C483.152 272.622 490.1 275.133 496.956 274.006L592.216 258.344C608.029 255.744 620.325 271.867 613.634 286.429L590.76 336.214C586.602 345.263 589.736 355.992 598.11 361.381L633.543 384.187C645.438 391.842 645.844 409.089 634.322 417.295L580.238 455.816C573.453 460.649 570.374 469.181 572.509 477.234L581.127 509.728C585.52 526.29 568.412 540.347 553.016 532.825L516.635 515.051C506.297 510 493.839 514.693 489.402 525.309L476.515 556.146C470.974 569.404 453.678 572.667 443.687 562.34L414.721 532.398C406.033 523.418 391.329 524.514 384.068 534.684L355.61 574.548C347.936 585.297 332.134 585.788 323.807 575.536L293.025 537.634C287.404 530.712 277.878 528.348 269.672 531.838L216.802 554.326C201.164 560.977 184.882 546.33 189.847 530.078Z" fill="#E43C3C" stroke="white" stroke-width="20"/>
<path d="M465.44 329.381C480.765 327.934 494.28 331.657 504.112 342.136L504.111 342.136C513.694 352.242 518.5 367.958 520.295 386.981C522.091 406.004 520.309 422.341 512.787 434.061L512.788 434.062C505.09 446.195 492.51 452.381 477.185 453.828C461.855 455.274 448.332 451.551 438.421 441.135L438.373 441.085C434.875 437.357 432.021 432.866 429.719 427.728C428.398 433.207 426.406 438.155 423.633 442.475L423.634 442.476C415.935 454.61 403.355 460.796 388.031 462.242C372.7 463.689 359.177 459.966 349.266 449.55L349.218 449.499C339.735 439.392 334.972 423.675 333.176 404.641C331.379 385.608 333.117 369.277 340.542 357.574L340.58 357.515C348.367 345.429 360.955 339.242 376.285 337.795C391.61 336.349 405.125 340.072 414.958 350.551L414.957 350.551C418.489 354.276 421.372 358.764 423.695 363.899C424.994 358.421 426.959 353.475 429.697 349.16L429.735 349.101C437.522 337.015 450.11 330.827 465.44 329.381ZM306.557 345.783C311.414 345.324 315.956 346.815 319.601 349.949C323.229 352.98 325.547 357.13 326.007 362.006L334.11 447.865C334.57 452.742 333.07 457.251 330.073 460.907C327.08 464.669 322.896 466.983 318.039 467.441L313.857 467.836C308.949 468.299 304.412 466.777 300.743 463.741C297.075 460.705 294.731 456.533 294.268 451.625L289.325 399.251L284.527 403.705L284.525 403.703C282.809 405.309 280.533 406.696 277.71 407.25C274.843 407.813 272.177 407.368 269.969 406.513L269.846 406.465L269.726 406.415C267.603 405.528 265.47 404.071 263.825 401.836C262.18 399.601 261.422 397.131 261.206 394.841L260.68 389.265C259.892 380.925 262.782 373.485 268.856 367.768L268.908 367.72L282.744 354.883L282.794 354.837C288.301 349.797 294.937 346.879 302.375 346.177L306.557 345.783ZM379.599 372.899C376.613 373.181 375.21 374.239 374.078 376.765C372.588 380.089 371.617 387.526 372.879 400.894C374.141 414.262 376.485 421.386 378.571 424.373C380.156 426.643 381.732 427.42 384.718 427.138C387.704 426.856 389.107 425.798 390.239 423.272C391.73 419.948 392.699 412.511 391.437 399.143C390.175 385.775 387.832 378.65 385.746 375.663C384.161 373.394 382.584 372.617 379.599 372.899ZM468.753 364.484C465.767 364.766 464.365 365.824 463.233 368.35C461.742 371.675 460.772 379.112 462.034 392.48C463.295 405.848 465.64 412.972 467.726 415.959C469.311 418.228 470.887 419.006 473.872 418.724C476.858 418.442 478.261 417.384 479.394 414.858C480.884 411.533 481.853 404.096 480.592 390.728C479.33 377.36 476.987 370.236 474.9 367.249C473.315 364.979 471.739 364.203 468.753 364.484Z" fill="black" stroke="white" stroke-width="20"/>
</g>
<defs>
<filter id="filter0_d_155_311" x="43.5433" y="161.24" width="706.47" height="577.629" filterUnits="userSpaceOnUse" color-interpolation-filters="sRGB">
<feFlood flood-opacity="0" result="BackgroundImageFix"/>
<feColorMatrix in="SourceAlpha" type="matrix" values="0 0 0 0 0 0 0 0 0 0 0 0 0 0 0 0 0 0 127 0" result="hardAlpha"/>
<feOffset dy="48.647"/>
<feGaussianBlur stdDeviation="48.647"/>
<feComposite in2="hardAlpha" operator="out"/>
<feColorMatrix type="matrix" values="0 0 0 0 0 0 0 0 0 0 0 0 0 0 0 0 0 0 0.12 0"/>
<feBlend mode="normal" in2="BackgroundImageFix" result="effect1_dropShadow_155_311"/>
<feBlend mode="normal" in="SourceGraphic" in2="effect1_dropShadow_155_311" result="shape"/>
</filter>
</defs>
</svg>
