<svg width="80" height="80" viewBox="0 0 80 80" fill="none" xmlns="http://www.w3.org/2000/svg">
<g filter="url(#filter0_d_155_319)">
<mask id="path-1-outside-1_155_319" maskUnits="userSpaceOnUse" x="29.5881" y="30.9653" width="22.6188" height="17.3663" fill="black">
<rect fill="white" x="29.5881" y="30.9653" width="22.6188" height="17.3663"/>
<path d="M34.2797 37.2865L34.6766 40.6371C34.6843 40.702 34.7263 40.7393 34.8026 40.749C35.1603 40.7536 35.506 40.7362 35.8397 40.6967C36.5904 40.6077 37.1412 40.378 37.4921 40.0075C37.8511 39.6266 37.9944 39.1303 37.9219 38.5186C37.7759 37.2859 36.9336 36.7606 35.395 36.9429C35.0613 36.9824 34.7212 37.0462 34.3744 37.1343C34.3025 37.1616 34.2709 37.2124 34.2797 37.2865ZM34.1542 45.9857C33.941 46.0109 33.7463 45.9541 33.5701 45.8152C33.4031 45.6752 33.307 45.4986 33.2817 45.2854L32.2755 36.7908C32.2491 36.5684 32.2997 36.3603 32.4271 36.1667C32.5545 35.973 32.7284 35.8537 32.9486 35.8088C33.7277 35.6414 34.4833 35.5142 35.2155 35.4275C36.6058 35.2628 37.6814 35.4173 38.4424 35.8911C39.2024 36.3556 39.6444 37.1115 39.7684 38.1589C39.9057 39.3174 39.6711 40.2334 39.0648 40.9067C38.4677 41.579 37.5111 41.993 36.195 42.149C35.8891 42.1852 35.4838 42.2144 34.9789 42.2366C34.9047 42.2454 34.872 42.2869 34.8808 42.361L35.2003 45.0582C35.2256 45.2713 35.1688 45.466 35.0299 45.6423C34.891 45.8185 34.7149 45.9192 34.5017 45.9445L34.1542 45.9857ZM43.0097 36.2523L43.367 39.2692C43.3758 39.3434 43.4219 39.3755 43.5053 39.3656L44.2005 39.2833C45.8503 39.0879 46.6055 38.4016 46.466 37.2245C46.342 36.1771 45.5153 35.744 43.986 35.9252C43.7079 35.9582 43.4187 36.0159 43.1183 36.0985C43.0371 36.1269 43.0009 36.1782 43.0097 36.2523ZM42.8981 44.9499C42.6849 44.9751 42.4902 44.9183 42.3139 44.7794C42.1377 44.6405 42.037 44.4645 42.0117 44.2513L41.0054 35.7567C40.9791 35.5342 41.0296 35.3262 41.1571 35.1325C41.2845 34.9388 41.4583 34.8196 41.6786 34.7747C42.4576 34.6072 43.2133 34.4801 43.9455 34.3933C45.3079 34.2319 46.3577 34.366 47.0947 34.7957C47.8306 35.216 48.2529 35.885 48.3616 36.8026C48.4395 37.4606 48.3274 38.0613 48.0252 38.6046C47.7323 39.1469 47.2967 39.5556 46.7184 39.8309C46.7091 39.832 46.705 39.8372 46.7061 39.8464C46.7083 39.865 46.7141 39.8737 46.7233 39.8726C47.2012 40.098 47.6459 40.5998 48.0577 41.3781L49.1504 43.462C49.2362 43.6304 49.2328 43.8 49.1402 43.9707C49.0569 44.1404 48.9226 44.2362 48.7372 44.2581L48.3062 44.3092C48.0653 44.3377 47.8398 44.2987 47.6298 44.192C47.4186 44.076 47.2582 43.9117 47.1484 43.6992L46.1163 41.6504C45.8967 41.2252 45.6721 40.9558 45.4425 40.842C45.2128 40.7282 44.8385 40.7021 44.3195 40.7636L43.6799 40.8393C43.5965 40.8492 43.5597 40.8959 43.5696 40.9793L43.9303 44.024C43.9556 44.2372 43.8987 44.4319 43.7598 44.6081C43.6302 44.7832 43.4588 44.8834 43.2456 44.9087L42.8981 44.9499Z"/>
</mask>
<path d="M34.2797 37.2865L34.6766 40.6371C34.6843 40.702 34.7263 40.7393 34.8026 40.749C35.1603 40.7536 35.506 40.7362 35.8397 40.6967C36.5904 40.6077 37.1412 40.378 37.4921 40.0075C37.8511 39.6266 37.9944 39.1303 37.9219 38.5186C37.7759 37.2859 36.9336 36.7606 35.395 36.9429C35.0613 36.9824 34.7212 37.0462 34.3744 37.1343C34.3025 37.1616 34.2709 37.2124 34.2797 37.2865ZM34.1542 45.9857C33.941 46.0109 33.7463 45.9541 33.5701 45.8152C33.4031 45.6752 33.307 45.4986 33.2817 45.2854L32.2755 36.7908C32.2491 36.5684 32.2997 36.3603 32.4271 36.1667C32.5545 35.973 32.7284 35.8537 32.9486 35.8088C33.7277 35.6414 34.4833 35.5142 35.2155 35.4275C36.6058 35.2628 37.6814 35.4173 38.4424 35.8911C39.2024 36.3556 39.6444 37.1115 39.7684 38.1589C39.9057 39.3174 39.6711 40.2334 39.0648 40.9067C38.4677 41.579 37.5111 41.993 36.195 42.149C35.8891 42.1852 35.4838 42.2144 34.9789 42.2366C34.9047 42.2454 34.872 42.2869 34.8808 42.361L35.2003 45.0582C35.2256 45.2713 35.1688 45.466 35.0299 45.6423C34.891 45.8185 34.7149 45.9192 34.5017 45.9445L34.1542 45.9857ZM43.0097 36.2523L43.367 39.2692C43.3758 39.3434 43.4219 39.3755 43.5053 39.3656L44.2005 39.2833C45.8503 39.0879 46.6055 38.4016 46.466 37.2245C46.342 36.1771 45.5153 35.744 43.986 35.9252C43.7079 35.9582 43.4187 36.0159 43.1183 36.0985C43.0371 36.1269 43.0009 36.1782 43.0097 36.2523ZM42.8981 44.9499C42.6849 44.9751 42.4902 44.9183 42.3139 44.7794C42.1377 44.6405 42.037 44.4645 42.0117 44.2513L41.0054 35.7567C40.9791 35.5342 41.0296 35.3262 41.1571 35.1325C41.2845 34.9388 41.4583 34.8196 41.6786 34.7747C42.4576 34.6072 43.2133 34.4801 43.9455 34.3933C45.3079 34.2319 46.3577 34.366 47.0947 34.7957C47.8306 35.216 48.2529 35.885 48.3616 36.8026C48.4395 37.4606 48.3274 38.0613 48.0252 38.6046C47.7323 39.1469 47.2967 39.5556 46.7184 39.8309C46.7091 39.832 46.705 39.8372 46.7061 39.8464C46.7083 39.865 46.7141 39.8737 46.7233 39.8726C47.2012 40.098 47.6459 40.5998 48.0577 41.3781L49.1504 43.462C49.2362 43.6304 49.2328 43.8 49.1402 43.9707C49.0569 44.1404 48.9226 44.2362 48.7372 44.2581L48.3062 44.3092C48.0653 44.3377 47.8398 44.2987 47.6298 44.192C47.4186 44.076 47.2582 43.9117 47.1484 43.6992L46.1163 41.6504C45.8967 41.2252 45.6721 40.9558 45.4425 40.842C45.2128 40.7282 44.8385 40.7021 44.3195 40.7636L43.6799 40.8393C43.5965 40.8492 43.5597 40.8959 43.5696 40.9793L43.9303 44.024C43.9556 44.2372 43.8987 44.4319 43.7598 44.6081C43.6302 44.7832 43.4588 44.8834 43.2456 44.9087L42.8981 44.9499Z" fill="black"/>
<path d="M34.8026 40.749L34.5492 42.7329L34.6625 42.7474L34.7768 42.7489L34.8026 40.749ZM37.4921 40.0075L38.9443 41.3826L38.9474 41.3793L37.4921 40.0075ZM34.3744 37.1343L33.8821 35.1959L33.7713 35.224L33.6645 35.2646L34.3744 37.1343ZM33.5701 45.8152L32.285 47.3477L32.3082 47.3672L32.332 47.386L33.5701 45.8152ZM32.9486 35.8088L33.348 37.7685L33.3585 37.7664L33.369 37.7642L32.9486 35.8088ZM38.4424 35.8911L37.3854 37.589L37.3924 37.5933L37.3994 37.5976L38.4424 35.8911ZM39.0648 40.9067L37.5785 39.5684L37.5694 39.5786L39.0648 40.9067ZM34.9789 42.2366L34.8909 40.2386L34.817 40.2418L34.7436 40.2505L34.9789 42.2366ZM35.0299 45.6423L33.4591 44.4042L33.4591 44.4042L35.0299 45.6423ZM32.2936 37.5218L32.6905 40.8724L36.6627 40.4018L36.2658 37.0512L32.2936 37.5218ZM32.6905 40.8724C32.742 41.3072 32.9398 41.813 33.3857 42.2091C33.8003 42.5772 34.2554 42.6954 34.5492 42.7329L35.0561 38.7651C35.2735 38.7929 35.6695 38.8875 36.042 39.2184C36.4459 39.5771 36.6189 40.0318 36.6627 40.4018L32.6905 40.8724ZM34.7768 42.7489C35.2162 42.7545 35.6493 42.7332 36.075 42.6828L35.6044 38.7106C35.3627 38.7392 35.1045 38.7528 34.8285 38.7492L34.7768 42.7489ZM36.075 42.6828C37.0738 42.5645 38.1483 42.2232 38.9443 41.3826L36.0399 38.6323C36.0863 38.5833 36.1068 38.5864 36.046 38.6118C35.9798 38.6394 35.8424 38.6824 35.6044 38.7106L36.075 42.6828ZM38.9474 41.3793C39.7859 40.4898 40.0365 39.3676 39.908 38.2833L35.9358 38.7539C35.9466 38.8448 35.9321 38.8475 35.9473 38.7949C35.9547 38.7691 35.9671 38.7382 35.9853 38.7063C36.0035 38.6746 36.0224 38.6509 36.0367 38.6357L38.9474 41.3793ZM39.908 38.2833C39.7832 37.2296 39.3017 36.1658 38.2389 35.503C37.2682 34.8977 36.1417 34.8405 35.1597 34.9568L35.6303 38.929C35.8888 38.8984 36.0493 38.9063 36.1332 38.9184C36.2132 38.93 36.1915 38.9403 36.1224 38.8972C36.0881 38.8758 36.0507 38.8464 36.0152 38.8091C35.9798 38.7719 35.9547 38.7357 35.9385 38.7068C35.9067 38.6503 35.9234 38.6488 35.9358 38.7539L39.908 38.2833ZM35.1597 34.9568C34.7341 35.0072 34.308 35.0877 33.8821 35.1959L34.8668 39.0727C35.1343 39.0048 35.3886 38.9577 35.6303 38.929L35.1597 34.9568ZM33.6645 35.2646C33.3378 35.3886 32.9053 35.6437 32.5989 36.1358C32.2883 36.6348 32.2494 37.1488 32.2936 37.5218L36.2658 37.0512C36.3012 37.35 36.2737 37.8016 35.9947 38.2498C35.7199 38.6912 35.3392 38.9073 35.0844 39.004L33.6645 35.2646ZM33.9189 43.9996C34.0634 43.9824 34.233 43.9908 34.4086 44.0421C34.5823 44.0928 34.7162 44.172 34.8081 44.2444L32.332 47.386C32.9038 47.8366 33.6235 48.0625 34.3895 47.9718L33.9189 43.9996ZM34.8551 44.2827C34.9474 44.36 35.0481 44.4722 35.1294 44.6217C35.2111 44.7717 35.2526 44.9214 35.2679 45.0502L31.2956 45.5207C31.3818 46.2482 31.7342 46.8859 32.285 47.3477L34.8551 44.2827ZM35.2679 45.0502L34.2616 36.5556L30.2893 37.0261L31.2956 45.5207L35.2679 45.0502ZM34.2616 36.5556C34.2751 36.6697 34.2706 36.8021 34.2371 36.9401C34.2038 37.077 34.1499 37.1869 34.0978 37.266L30.7563 35.0673C30.3796 35.6398 30.2055 36.318 30.2893 37.0261L34.2616 36.5556ZM34.0978 37.266C34.0334 37.364 33.9317 37.4802 33.7846 37.5811C33.6364 37.6828 33.4827 37.7411 33.348 37.7685L32.5492 33.8491C31.7896 34.0039 31.166 34.4448 30.7563 35.0673L34.0978 37.266ZM33.369 37.7642C34.0917 37.6088 34.7854 37.4924 35.4508 37.4136L34.9802 33.4414C34.1811 33.5361 33.3636 33.6739 32.5283 33.8535L33.369 37.7642ZM35.4508 37.4136C36.6288 37.2741 37.1738 37.4572 37.3854 37.589L39.4994 34.1932C38.189 33.3775 36.5827 33.2516 34.9802 33.4414L35.4508 37.4136ZM37.3994 37.5976C37.5369 37.6816 37.7155 37.8303 37.7823 38.3941L41.7545 37.9236C41.5732 36.3927 40.8679 35.0296 39.4855 34.1846L37.3994 37.5976ZM37.7823 38.3941C37.8726 39.1564 37.695 39.4391 37.5786 39.5684L40.551 42.2451C41.6473 41.0277 41.9387 39.4785 41.7545 37.9236L37.7823 38.3941ZM37.5694 39.5786C37.4221 39.7444 37.015 40.0378 35.9597 40.1628L36.4303 44.1351C38.0073 43.9482 39.5133 43.4135 40.5601 42.2349L37.5694 39.5786ZM35.9597 40.1628C35.7237 40.1908 35.3734 40.2173 34.8909 40.2386L35.0668 44.2347C35.5941 44.2115 36.0546 44.1796 36.4303 44.1351L35.9597 40.1628ZM34.7436 40.2505C34.4004 40.2912 33.7885 40.452 33.328 41.0363C32.8675 41.6205 32.8541 42.2531 32.8947 42.5963L36.8669 42.1257C36.8988 42.3948 36.8973 42.9696 36.4695 43.5123C36.0417 44.0551 35.4832 44.1909 35.2141 44.2227L34.7436 40.2505ZM32.8947 42.5963L33.2142 45.2934L37.1864 44.8229L36.8669 42.1257L32.8947 42.5963ZM33.2142 45.2934C33.1971 45.1489 33.2055 44.9793 33.2567 44.8038C33.3075 44.63 33.3867 44.4961 33.4591 44.4042L36.6006 46.8803C37.0513 46.3085 37.2772 45.5888 37.1864 44.8229L33.2142 45.2934ZM33.4591 44.4042C33.5315 44.3124 33.6432 44.2041 33.8003 44.1141C33.959 44.0233 34.1219 43.9755 34.2665 43.9584L34.737 47.9306C35.5029 47.8399 36.1499 47.4521 36.6006 46.8803L33.4591 44.4042ZM34.2665 43.9584L33.9189 43.9996L34.3895 47.9718L34.737 47.9306L34.2665 43.9584ZM43.1183 36.0985L42.5882 34.17L42.5223 34.1881L42.4578 34.2107L43.1183 36.0985ZM42.3139 44.7794L41.0759 46.3501L42.3139 44.7794ZM41.6786 34.7747L42.078 36.7344L42.0885 36.7322L42.0989 36.73L41.6786 34.7747ZM47.0947 34.7957L46.0874 36.5235L46.095 36.528L46.1027 36.5323L47.0947 34.7957ZM48.0252 38.6046L46.2774 37.6325L46.2714 37.6433L46.2656 37.6541L48.0252 38.6046ZM46.7184 39.8309L46.9537 41.817L47.2807 41.7783L47.578 41.6367L46.7184 39.8309ZM46.7233 39.8726L47.5765 38.0637L47.0577 37.819L46.4881 37.8865L46.7233 39.8726ZM48.0577 41.3781L49.829 40.4493L49.8255 40.4428L48.0577 41.3781ZM49.1504 43.462L50.9328 42.5546L50.9273 42.5439L50.9217 42.5332L49.1504 43.462ZM49.1402 43.9707L47.3819 43.0176L47.3627 43.0531L47.3449 43.0893L49.1402 43.9707ZM47.6298 44.192L46.6668 45.9449L46.6951 45.9604L46.7238 45.975L47.6298 44.192ZM47.1484 43.6992L45.3623 44.599L45.3668 44.6079L45.3714 44.6168L47.1484 43.6992ZM46.1163 41.6504L47.9024 40.7505L47.8979 40.7416L47.8933 40.7327L46.1163 41.6504ZM45.4425 40.842L44.5546 42.6341L44.5546 42.6341L45.4425 40.842ZM43.7598 44.6081L42.1891 43.3701L42.1703 43.3939L42.1523 43.4182L43.7598 44.6081ZM41.0235 36.4876L41.3809 39.5045L45.3532 39.034L44.9958 36.0171L41.0235 36.4876ZM41.3809 39.5045C41.4292 39.9123 41.6318 40.5487 42.2646 40.9897C42.848 41.3964 43.4466 41.3866 43.7406 41.3518L43.2701 37.3795C43.4807 37.3546 44.0145 37.3336 44.5519 37.7082C45.1385 38.1171 45.3136 38.7003 45.3532 39.034L41.3809 39.5045ZM43.7406 41.3518L44.4358 41.2694L43.9652 37.2972L43.2701 37.3795L43.7406 41.3518ZM44.4358 41.2694C45.4368 41.1508 46.5242 40.8519 47.3493 40.1021C48.2874 39.2497 48.5838 38.1007 48.4521 36.9892L44.4799 37.4598C44.4874 37.5229 44.472 37.4843 44.5039 37.3878C44.5394 37.2802 44.6035 37.1924 44.6591 37.1419C44.7035 37.1016 44.6994 37.1237 44.5817 37.1669C44.4631 37.2104 44.266 37.2616 43.9652 37.2972L44.4358 41.2694ZM48.4521 36.9892C48.3242 35.9095 47.7622 34.909 46.6811 34.3425C45.7461 33.8527 44.6802 33.829 43.7507 33.9391L44.2212 37.9113C44.4965 37.8787 44.6796 37.8815 44.7885 37.8932C44.8976 37.9048 44.892 37.9209 44.8248 37.8858C44.7437 37.8432 44.6384 37.7595 44.5584 37.6349C44.4839 37.519 44.4776 37.4399 44.4799 37.4598L48.4521 36.9892ZM43.7507 33.9391C43.3626 33.9851 42.9746 34.0638 42.5882 34.17L43.6485 38.0269C43.8628 37.968 44.0532 37.9312 44.2212 37.9113L43.7507 33.9391ZM42.4578 34.2107C42.1666 34.3126 41.7292 34.5336 41.3966 35.0045C41.0412 35.5077 40.9727 36.058 41.0235 36.4876L44.9958 36.0171C45.0379 36.3725 44.9831 36.8601 44.6639 37.312C44.3675 37.7317 43.9888 37.9128 43.7788 37.9863L42.4578 34.2107ZM42.6628 42.9637C42.8073 42.9466 42.9769 42.955 43.1525 43.0063C43.3262 43.057 43.4601 43.1362 43.552 43.2086L41.0759 46.3501C41.6477 46.8008 42.3674 47.0267 43.1333 46.936L42.6628 42.9637ZM43.552 43.2086C43.6439 43.281 43.7522 43.3927 43.8421 43.5498C43.9329 43.7085 43.9807 43.8715 43.9978 44.016L40.0256 44.4866C40.1163 45.2525 40.5041 45.8995 41.0759 46.3501L43.552 43.2086ZM43.9978 44.016L42.9915 35.5214L39.0193 35.9919L40.0256 44.4866L43.9978 44.016ZM42.9915 35.5214C43.0051 35.6356 43.0006 35.768 42.9671 35.9059C42.9338 36.0429 42.8799 36.1527 42.8278 36.2319L39.4863 34.0331C39.1096 34.6056 38.9354 35.2838 39.0193 35.9919L42.9915 35.5214ZM42.8278 36.2319C42.7633 36.3298 42.6616 36.446 42.5145 36.5469C42.3663 36.6486 42.2126 36.7069 42.078 36.7344L41.2792 32.8149C40.5195 32.9698 39.8959 33.4106 39.4863 34.0331L42.8278 36.2319ZM42.0989 36.73C42.8216 36.5746 43.5154 36.4583 44.1807 36.3795L43.7102 32.4072C42.9111 32.5019 42.0936 32.6397 41.2582 32.8193L42.0989 36.73ZM44.1807 36.3795C45.3545 36.2404 45.8926 36.4099 46.0874 36.5235L48.1019 33.0678C46.8228 32.3222 45.2614 32.2235 43.7102 32.4072L44.1807 36.3795ZM46.1027 36.5323C46.2327 36.6066 46.3335 36.6841 46.3754 37.0378L50.3477 36.5673C50.1722 35.0859 49.4284 33.8255 48.0867 33.059L46.1027 36.5323ZM46.3754 37.0378C46.4074 37.3076 46.3614 37.4815 46.2774 37.6325L49.7731 39.5768C50.2934 38.6412 50.4716 37.6137 50.3477 36.5673L46.3754 37.0378ZM46.2656 37.6541C46.1826 37.8076 46.07 37.9245 45.8588 38.025L47.578 41.6367C48.5234 41.1867 49.282 40.4862 49.7849 39.5552L46.2656 37.6541ZM46.4831 37.8448C46.1723 37.8816 45.5838 38.0315 45.1376 38.5976C44.6914 39.1637 44.6832 39.771 44.72 40.0817L48.6922 39.6112C48.728 39.9127 48.7212 40.5127 48.2792 41.0736C47.8371 41.6345 47.2552 41.7813 46.9537 41.817L46.4831 37.8448ZM44.72 40.0817C44.7331 40.1924 44.7813 40.5707 45.0409 40.9655C45.188 41.1894 45.4326 41.4623 45.8111 41.6546C46.203 41.8537 46.6087 41.9002 46.9586 41.8587L46.4881 37.8865C46.8333 37.8456 47.2349 37.8913 47.623 38.0885C47.9977 38.2789 48.239 38.5488 48.3833 38.7682C48.6371 39.1543 48.6813 39.519 48.6922 39.6112L44.72 40.0817ZM45.8702 41.6815C45.8077 41.6521 45.8293 41.6438 45.9186 41.7446C46.0084 41.8459 46.1367 42.0238 46.2899 42.3133L49.8255 40.4428C49.3342 39.5141 48.6305 38.5608 47.5765 38.0637L45.8702 41.6815ZM46.2864 42.3069L47.3792 44.3908L50.9217 42.5332L49.829 40.4493L46.2864 42.3069ZM47.3681 44.3694C47.2791 44.1945 47.207 43.9556 47.2126 43.6753C47.2182 43.3973 47.2983 43.1719 47.3819 43.0176L50.8985 44.9239C51.2943 44.1938 51.3268 43.3285 50.9328 42.5546L47.3681 44.3694ZM47.3449 43.0893C47.428 42.9202 47.5759 42.7126 47.8157 42.5415C48.0565 42.3697 48.3053 42.2953 48.5019 42.272L48.9725 46.2443C49.8417 46.1413 50.5577 45.6216 50.9355 44.8522L47.3449 43.0893ZM48.5019 42.272L48.071 42.3231L48.5415 46.2953L48.9725 46.2443L48.5019 42.272ZM48.071 42.3231C48.1309 42.316 48.209 42.3153 48.2979 42.3307C48.3873 42.3462 48.4682 42.3746 48.5357 42.4089L46.7238 45.975C47.2969 46.2662 47.921 46.3688 48.5415 46.2953L48.071 42.3231ZM48.5927 42.439C48.6513 42.4712 48.7179 42.5188 48.7819 42.5843C48.8459 42.6499 48.8932 42.719 48.9255 42.7815L45.3714 44.6168C45.6648 45.1851 46.1099 45.639 46.6668 45.9449L48.5927 42.439ZM48.9346 42.7993L47.9024 40.7505L44.3301 42.5502L45.3623 44.599L48.9346 42.7993ZM47.8933 40.7327C47.6245 40.2121 47.1529 39.4574 46.3304 39.0499L44.5546 42.6341C44.4473 42.581 44.3712 42.5249 44.3241 42.4852C44.2773 42.4457 44.2525 42.4168 44.2468 42.41C44.2409 42.4028 44.2478 42.4102 44.2657 42.4381C44.2833 42.4657 44.3082 42.5079 44.3392 42.568L47.8933 40.7327ZM46.3304 39.0499C45.5439 38.6603 44.6614 38.7091 44.0842 38.7775L44.5547 42.7497C44.641 42.7395 44.709 42.7344 44.7607 42.7323C44.8128 42.7303 44.8414 42.7316 44.8501 42.7322C44.8597 42.7329 44.8376 42.7321 44.7917 42.7215C44.7465 42.711 44.6615 42.6871 44.5546 42.6341L46.3304 39.0499ZM44.0842 38.7775L43.4446 38.8532L43.9152 42.8254L44.5547 42.7497L44.0842 38.7775ZM43.4446 38.8532C43.0968 38.8944 42.4816 39.0569 42.019 39.6437C41.5565 40.2306 41.5423 40.8667 41.5835 41.2146L45.5557 40.744C45.5871 41.0084 45.5863 41.5796 45.1605 42.1198C44.7348 42.66 44.1796 42.7941 43.9152 42.8254L43.4446 38.8532ZM41.5835 41.2146L41.9442 44.2593L45.9164 43.7887L45.5557 40.744L41.5835 41.2146ZM41.9442 44.2593C41.9271 44.1147 41.9355 43.9452 41.9867 43.7696C42.0374 43.5958 42.1167 43.462 42.1891 43.3701L45.3306 45.8461C45.7813 45.2743 46.0071 44.5546 45.9164 43.7887L41.9442 44.2593ZM42.1523 43.4182C42.2327 43.3096 42.3549 43.1872 42.5248 43.088C42.6952 42.9883 42.8663 42.9396 43.0103 42.9226L43.4809 46.8948C44.251 46.8036 44.9152 46.4088 45.3674 45.798L42.1523 43.4182ZM43.0103 42.9226L42.6628 42.9637L43.1333 46.936L43.4809 46.8948L43.0103 42.9226Z" fill="white" mask="url(#path-1-outside-1_155_319)"/>
<path d="M25.7375 29.5938C24.9999 31.6861 24.5938 33.9733 24.5938 36.3694C24.5938 46.3481 31.6383 54.4375 40.3281 54.4375C49.018 54.4375 56.0625 46.3481 56.0625 36.3694C56.0625 33.9733 55.6563 31.6861 54.9189 29.5938" stroke="white" stroke-width="2" stroke-linecap="round" stroke-linejoin="round"/>
<path d="M46.125 62.7188C46.125 62.7188 44.3177 54.4375 39.5 54.4375C34.6823 54.4375 32.875 62.7188 32.875 62.7188" stroke="white" stroke-width="2" stroke-linecap="round" stroke-linejoin="round"/>
<path d="M55.9455 23.9086C56.7513 28.3253 53.1304 31.25 53.1304 31.25C53.1304 31.25 48.704 29.758 47.8982 25.3414C47.0925 20.9247 50.7133 18 50.7133 18C50.7133 18 55.14 19.492 55.9455 23.9086Z" fill="url(#paint0_linear_155_319)" stroke="white" stroke-width="2" stroke-linecap="round" stroke-linejoin="round"/>
<path d="M63.75 39.0492C60.5666 42.1964 56.2562 40.9398 56.2562 40.9398C56.2562 40.9398 55.1291 36.5357 58.3125 33.3884C61.4957 30.2411 65.8063 31.4977 65.8063 31.4977C65.8063 31.4977 66.9334 35.9017 63.75 39.0492Z" fill="url(#paint1_linear_155_319)" stroke="white" stroke-width="2" stroke-linecap="round" stroke-linejoin="round"/>
<path d="M57.2162 54.0537C53.3516 52.7826 52.75 49.2183 52.75 49.2183C52.75 49.2183 56.013 46.9252 59.8776 48.1963C63.7422 49.4674 64.3438 53.0317 64.3438 53.0317C64.3438 53.0317 61.0808 55.3248 57.2162 54.0537Z" fill="url(#paint2_linear_155_319)" stroke="white" stroke-width="2" stroke-linecap="round" stroke-linejoin="round"/>
<path d="M23.4401 54.0537C27.3047 52.7826 27.9062 49.2183 27.9062 49.2183C27.9062 49.2183 24.6432 46.9252 20.7786 48.1963C16.9141 49.4674 16.3125 53.0317 16.3125 53.0317C16.3125 53.0317 19.5755 55.3248 23.4401 54.0537Z" fill="url(#paint3_linear_155_319)" stroke="white" stroke-width="2" stroke-linecap="round" stroke-linejoin="round"/>
<path d="M15.6249 39.0492C19.3389 42.1964 24.3678 40.9398 24.3678 40.9398C24.3678 40.9398 25.6827 36.5357 21.9688 33.3884C18.2549 30.2411 13.226 31.4977 13.226 31.4977C13.226 31.4977 11.911 35.9017 15.6249 39.0492Z" fill="url(#paint4_linear_155_319)" stroke="white" stroke-width="2" stroke-linecap="round" stroke-linejoin="round"/>
<path d="M24.7107 23.9086C23.905 28.3253 27.5258 31.25 27.5258 31.25C27.5258 31.25 31.9523 29.758 32.758 25.3414C33.5637 20.9247 29.9429 18 29.9429 18C29.9429 18 25.5164 19.492 24.7107 23.9086Z" fill="url(#paint5_linear_155_319)" stroke="white" stroke-width="2" stroke-linecap="round" stroke-linejoin="round"/>
</g>
<defs>
<filter id="filter0_d_155_319" x="2.27059" y="12.1353" width="74.4588" height="66.1777" filterUnits="userSpaceOnUse" color-interpolation-filters="sRGB">
<feFlood flood-opacity="0" result="BackgroundImageFix"/>
<feColorMatrix in="SourceAlpha" type="matrix" values="0 0 0 0 0 0 0 0 0 0 0 0 0 0 0 0 0 0 127 0" result="hardAlpha"/>
<feOffset dy="4.8647"/>
<feGaussianBlur stdDeviation="4.8647"/>
<feComposite in2="hardAlpha" operator="out"/>
<feColorMatrix type="matrix" values="0 0 0 0 0 0 0 0 0 0 0 0 0 0 0 0 0 0 0.12 0"/>
<feBlend mode="normal" in2="BackgroundImageFix" result="effect1_dropShadow_155_319"/>
<feBlend mode="normal" in="SourceGraphic" in2="effect1_dropShadow_155_319" result="shape"/>
</filter>
<linearGradient id="paint0_linear_155_319" x1="51.9219" y1="18" x2="51.9219" y2="31.25" gradientUnits="userSpaceOnUse">
<stop stop-color="#3F83C4"/>
<stop offset="0.415" stop-color="#9B93E4"/>
<stop offset="1" stop-color="#B374F7"/>
</linearGradient>
<linearGradient id="paint1_linear_155_319" x1="61.0312" y1="31.25" x2="61.0312" y2="41.1875" gradientUnits="userSpaceOnUse">
<stop stop-color="#3F83C4"/>
<stop offset="0.415" stop-color="#9B93E4"/>
<stop offset="1" stop-color="#B374F7"/>
</linearGradient>
<linearGradient id="paint2_linear_155_319" x1="58.5469" y1="47.8125" x2="58.5469" y2="54.4375" gradientUnits="userSpaceOnUse">
<stop stop-color="#3F83C4"/>
<stop offset="0.415" stop-color="#9B93E4"/>
<stop offset="1" stop-color="#B374F7"/>
</linearGradient>
<linearGradient id="paint3_linear_155_319" x1="22.1094" y1="47.8125" x2="22.1094" y2="54.4375" gradientUnits="userSpaceOnUse">
<stop stop-color="#3F83C4"/>
<stop offset="0.415" stop-color="#9B93E4"/>
<stop offset="1" stop-color="#B374F7"/>
</linearGradient>
<linearGradient id="paint4_linear_155_319" x1="18.7969" y1="31.25" x2="18.7969" y2="41.1875" gradientUnits="userSpaceOnUse">
<stop stop-color="#3F83C4"/>
<stop offset="0.415" stop-color="#9B93E4"/>
<stop offset="1" stop-color="#B374F7"/>
</linearGradient>
<linearGradient id="paint5_linear_155_319" x1="28.7344" y1="18" x2="28.7344" y2="31.25" gradientUnits="userSpaceOnUse">
<stop stop-color="#3F83C4"/>
<stop offset="0.415" stop-color="#9B93E4"/>
<stop offset="1" stop-color="#B374F7"/>
</linearGradient>
</defs>
</svg>
